<svg width="511" height="401" viewBox="0 0 511 401" fill="none" xmlns="http://www.w3.org/2000/svg">
<path fill-rule="evenodd" clip-rule="evenodd" d="M260.031 77.7415C299.057 74.8738 337.304 89.7145 366.915 110.5C398.888 132.943 419.631 163.179 425.948 197.061C433.522 237.689 443.473 287.688 404.93 314.408C366.778 340.857 310.233 319.947 260.031 321.069C206.852 322.257 149.812 346.544 106.909 321.069C62.6413 294.782 52.299 240.04 66.3259 197.061C78.4932 159.779 107.618 133.486 145.849 110.5C189.826 110.5 223.949 80.3931 260.031 77.7415Z" fill="#B294F0" fill-opacity="0.52"/>
<path fill-rule="evenodd" clip-rule="evenodd" d="M259.748 68.7241C301.803 65.6418 343.021 81.5927 374.93 103.933C409.386 128.055 431.74 160.552 438.547 196.969C446.709 240.637 457.433 294.376 415.897 323.094C374.783 351.521 313.847 329.047 259.748 330.253C202.439 331.53 140.97 357.634 94.7359 330.253C47.0307 302 35.8854 243.163 51.0014 196.969C64.1135 156.899 95.4993 128.639 136.699 103.933C184.091 103.933 220.863 71.574 259.748 68.7241Z" stroke="black" stroke-width="2"/>
<path fill-rule="evenodd" clip-rule="evenodd" d="M398.941 114.576C427.601 134.929 438.337 167.219 437.51 198.717C436.616 232.728 420.627 265.753 391.501 293.063C356.574 325.81 319.856 345.306 268.067 341.906C222.607 338.922 161.966 328.415 127.623 300.438C98.083 266.695 44.1857 245.148 58.3385 196.984C54.8683 153.242 101.837 109.041 153.377 87.0257C198.085 67.9293 214.308 81.1944 262.22 87.0257C341.657 121.964 372.442 95.7571 398.941 114.576Z" stroke="black" stroke-width="2" stroke-dasharray="6 6"/>
<path d="M122.911 239.184V224.284H128.031C129.004 224.284 129.857 224.477 130.591 224.864C131.324 225.237 131.891 225.77 132.291 226.464C132.704 227.144 132.911 227.937 132.911 228.844C132.911 229.897 132.631 230.797 132.071 231.544C131.524 232.29 130.777 232.817 129.831 233.124L133.311 239.184H131.431L127.791 232.764L128.871 233.384H124.511V239.184H122.911ZM124.511 231.884H128.111C128.751 231.884 129.311 231.764 129.791 231.524C130.271 231.27 130.644 230.917 130.911 230.464C131.177 229.997 131.311 229.45 131.311 228.824C131.311 228.197 131.177 227.657 130.911 227.204C130.644 226.75 130.271 226.404 129.791 226.164C129.311 225.91 128.751 225.784 128.111 225.784H124.511V231.884ZM139.918 239.424C138.904 239.424 137.984 239.184 137.158 238.704C136.331 238.21 135.671 237.544 135.178 236.704C134.698 235.85 134.458 234.884 134.458 233.804C134.458 232.737 134.698 231.784 135.178 230.944C135.658 230.104 136.304 229.444 137.118 228.964C137.944 228.47 138.878 228.224 139.918 228.224C140.958 228.224 141.884 228.464 142.698 228.944C143.524 229.424 144.171 230.084 144.638 230.924C145.118 231.764 145.358 232.724 145.358 233.804C145.358 234.897 145.111 235.87 144.618 236.724C144.124 237.564 143.464 238.224 142.638 238.704C141.824 239.184 140.918 239.424 139.918 239.424ZM139.918 237.924C140.638 237.924 141.284 237.744 141.858 237.384C142.444 237.024 142.904 236.53 143.238 235.904C143.584 235.277 143.758 234.577 143.758 233.804C143.758 233.03 143.584 232.337 143.238 231.724C142.904 231.11 142.444 230.624 141.858 230.264C141.284 229.904 140.638 229.724 139.918 229.724C139.198 229.724 138.544 229.904 137.958 230.264C137.384 230.624 136.924 231.11 136.578 231.724C136.231 232.337 136.058 233.03 136.058 233.804C136.058 234.577 136.231 235.277 136.578 235.904C136.924 236.53 137.384 237.024 137.958 237.384C138.544 237.744 139.198 237.924 139.918 237.924ZM153.023 239.424C152.01 239.424 151.09 239.184 150.263 238.704C149.436 238.21 148.776 237.544 148.283 236.704C147.803 235.85 147.563 234.884 147.563 233.804C147.563 232.737 147.803 231.784 148.283 230.944C148.763 230.104 149.41 229.444 150.223 228.964C151.05 228.47 151.983 228.224 153.023 228.224C154.063 228.224 154.99 228.464 155.803 228.944C156.63 229.424 157.276 230.084 157.743 230.924C158.223 231.764 158.463 232.724 158.463 233.804C158.463 234.897 158.216 235.87 157.723 236.724C157.23 237.564 156.57 238.224 155.743 238.704C154.93 239.184 154.023 239.424 153.023 239.424ZM153.023 237.924C153.743 237.924 154.39 237.744 154.963 237.384C155.55 237.024 156.01 236.53 156.343 235.904C156.69 235.277 156.863 234.577 156.863 233.804C156.863 233.03 156.69 232.337 156.343 231.724C156.01 231.11 155.55 230.624 154.963 230.264C154.39 229.904 153.743 229.724 153.023 229.724C152.303 229.724 151.65 229.904 151.063 230.264C150.49 230.624 150.03 231.11 149.683 231.724C149.336 232.337 149.163 233.03 149.163 233.804C149.163 234.577 149.336 235.277 149.683 235.904C150.03 236.53 150.49 237.024 151.063 237.384C151.65 237.744 152.303 237.924 153.023 237.924ZM165.013 239.304C164.053 239.304 163.313 239.024 162.793 238.464C162.273 237.904 162.013 237.104 162.013 236.064V229.964H160.033V228.464H160.533C160.987 228.464 161.347 228.317 161.613 228.024C161.88 227.717 162.013 227.337 162.013 226.884V225.984H163.513V228.464H165.873V229.964H163.513V236.064C163.513 236.424 163.567 236.744 163.673 237.024C163.78 237.29 163.96 237.504 164.213 237.664C164.48 237.824 164.833 237.904 165.273 237.904C165.38 237.904 165.507 237.897 165.653 237.884C165.8 237.87 165.927 237.857 166.033 237.844V239.184C165.873 239.224 165.693 239.25 165.493 239.264C165.293 239.29 165.133 239.304 165.013 239.304ZM173.157 239.424C172.157 239.424 171.25 239.184 170.437 238.704C169.637 238.21 169.003 237.537 168.537 236.684C168.07 235.83 167.837 234.864 167.837 233.784C167.837 232.704 168.063 231.75 168.517 230.924C168.97 230.084 169.583 229.424 170.357 228.944C171.143 228.464 172.023 228.224 172.997 228.224C173.77 228.224 174.457 228.37 175.057 228.664C175.67 228.944 176.19 229.33 176.617 229.824C177.043 230.304 177.37 230.85 177.597 231.464C177.823 232.064 177.937 232.684 177.937 233.324C177.937 233.457 177.93 233.61 177.917 233.784C177.903 233.944 177.883 234.11 177.857 234.284H168.797V232.884H176.997L176.277 233.484C176.397 232.75 176.31 232.097 176.017 231.524C175.737 230.937 175.33 230.477 174.797 230.144C174.263 229.797 173.663 229.624 172.997 229.624C172.33 229.624 171.71 229.797 171.137 230.144C170.577 230.49 170.137 230.977 169.817 231.604C169.497 232.217 169.37 232.95 169.437 233.804C169.37 234.657 169.503 235.404 169.837 236.044C170.183 236.67 170.65 237.157 171.237 237.504C171.837 237.85 172.477 238.024 173.157 238.024C173.943 238.024 174.603 237.837 175.137 237.464C175.67 237.09 176.103 236.624 176.437 236.064L177.717 236.744C177.503 237.224 177.177 237.67 176.737 238.084C176.297 238.484 175.77 238.81 175.157 239.064C174.557 239.304 173.89 239.424 173.157 239.424ZM185.421 239.424C184.421 239.424 183.521 239.184 182.721 238.704C181.921 238.21 181.288 237.544 180.821 236.704C180.368 235.85 180.141 234.89 180.141 233.824C180.141 232.744 180.368 231.784 180.821 230.944C181.288 230.104 181.915 229.444 182.701 228.964C183.501 228.47 184.408 228.224 185.421 228.224C186.341 228.224 187.161 228.424 187.881 228.824C188.601 229.224 189.168 229.764 189.581 230.444L189.341 230.864V224.044H190.841V239.184H189.341V236.784L189.581 237.004C189.208 237.777 188.648 238.377 187.901 238.804C187.168 239.217 186.341 239.424 185.421 239.424ZM185.501 237.924C186.221 237.924 186.868 237.744 187.441 237.384C188.028 237.024 188.488 236.537 188.821 235.924C189.168 235.297 189.341 234.597 189.341 233.824C189.341 233.05 189.168 232.357 188.821 231.744C188.488 231.117 188.028 230.624 187.441 230.264C186.868 229.904 186.221 229.724 185.501 229.724C184.795 229.724 184.155 229.904 183.581 230.264C183.008 230.624 182.555 231.11 182.221 231.724C181.901 232.337 181.741 233.037 181.741 233.824C181.741 234.597 181.901 235.297 182.221 235.924C182.555 236.537 183.001 237.024 183.561 237.384C184.135 237.744 184.781 237.924 185.501 237.924ZM197.319 239.184V228.464H198.819V239.184H197.319ZM197.319 226.484V224.284H198.819V226.484H197.319ZM201.89 239.184V228.464H203.39V230.544L203.05 230.464C203.316 229.77 203.75 229.224 204.35 228.824C204.963 228.424 205.67 228.224 206.47 228.224C207.23 228.224 207.91 228.397 208.51 228.744C209.123 229.09 209.603 229.57 209.95 230.184C210.31 230.784 210.49 231.464 210.49 232.224V239.184H208.99V232.804C208.99 232.15 208.87 231.597 208.63 231.144C208.403 230.69 208.076 230.344 207.65 230.104C207.236 229.85 206.756 229.724 206.21 229.724C205.663 229.724 205.176 229.85 204.75 230.104C204.323 230.344 203.99 230.697 203.75 231.164C203.51 231.617 203.39 232.164 203.39 232.804V239.184H201.89ZM216.973 239.184V224.284H218.573V232.984L218.213 232.804L225.713 224.284H227.713L221.693 231.124L221.773 229.984L228.073 239.184H226.153L221.073 231.844L218.573 234.684V239.184H216.973ZM229.839 239.184V224.044H231.339V230.544L230.999 230.464C231.266 229.77 231.699 229.224 232.299 228.824C232.912 228.424 233.619 228.224 234.419 228.224C235.179 228.224 235.859 228.397 236.459 228.744C237.072 229.09 237.552 229.57 237.899 230.184C238.259 230.784 238.439 231.464 238.439 232.224V239.184H236.939V232.804C236.939 232.15 236.819 231.597 236.579 231.144C236.339 230.69 236.006 230.344 235.579 230.104C235.166 229.85 234.692 229.724 234.159 229.724C233.626 229.724 233.146 229.85 232.719 230.104C232.292 230.344 231.952 230.697 231.699 231.164C231.459 231.617 231.339 232.164 231.339 232.804V239.184H229.839ZM241.304 239.184V228.464H242.804V230.504L242.564 230.204C242.857 229.577 243.291 229.09 243.864 228.744C244.451 228.397 245.091 228.224 245.784 228.224C246.611 228.224 247.357 228.457 248.024 228.924C248.691 229.39 249.164 229.997 249.444 230.744L249.024 230.764C249.291 229.937 249.751 229.31 250.404 228.884C251.071 228.444 251.804 228.224 252.604 228.224C253.324 228.224 253.984 228.397 254.584 228.744C255.197 229.09 255.684 229.57 256.044 230.184C256.417 230.784 256.604 231.464 256.604 232.224V239.184H255.104V232.804C255.104 232.15 254.984 231.597 254.744 231.144C254.517 230.69 254.204 230.344 253.804 230.104C253.404 229.85 252.944 229.724 252.424 229.724C251.917 229.724 251.457 229.85 251.044 230.104C250.631 230.344 250.304 230.697 250.064 231.164C249.824 231.617 249.704 232.164 249.704 232.804V239.184H248.204V232.804C248.204 232.15 248.084 231.597 247.844 231.144C247.617 230.69 247.304 230.344 246.904 230.104C246.504 229.85 246.044 229.724 245.524 229.724C245.004 229.724 244.537 229.85 244.124 230.104C243.724 230.344 243.404 230.697 243.164 231.164C242.924 231.617 242.804 232.164 242.804 232.804V239.184H241.304ZM264.348 239.424C263.348 239.424 262.441 239.184 261.628 238.704C260.828 238.21 260.195 237.537 259.728 236.684C259.261 235.83 259.028 234.864 259.028 233.784C259.028 232.704 259.255 231.75 259.708 230.924C260.161 230.084 260.775 229.424 261.548 228.944C262.335 228.464 263.215 228.224 264.188 228.224C264.961 228.224 265.648 228.37 266.248 228.664C266.861 228.944 267.381 229.33 267.808 229.824C268.235 230.304 268.561 230.85 268.788 231.464C269.015 232.064 269.128 232.684 269.128 233.324C269.128 233.457 269.121 233.61 269.108 233.784C269.095 233.944 269.075 234.11 269.048 234.284H259.988V232.884H268.188L267.468 233.484C267.588 232.75 267.501 232.097 267.208 231.524C266.928 230.937 266.521 230.477 265.988 230.144C265.455 229.797 264.855 229.624 264.188 229.624C263.521 229.624 262.901 229.797 262.328 230.144C261.768 230.49 261.328 230.977 261.008 231.604C260.688 232.217 260.561 232.95 260.628 233.804C260.561 234.657 260.695 235.404 261.028 236.044C261.375 236.67 261.841 237.157 262.428 237.504C263.028 237.85 263.668 238.024 264.348 238.024C265.135 238.024 265.795 237.837 266.328 237.464C266.861 237.09 267.295 236.624 267.628 236.064L268.908 236.744C268.695 237.224 268.368 237.67 267.928 238.084C267.488 238.484 266.961 238.81 266.348 239.064C265.748 239.304 265.081 239.424 264.348 239.424ZM271.773 239.184V228.464H273.273V230.224L273.073 229.964C273.326 229.457 273.706 229.057 274.213 228.764C274.733 228.47 275.359 228.324 276.093 228.324H276.773V229.824H275.833C275.059 229.824 274.439 230.064 273.973 230.544C273.506 231.024 273.273 231.704 273.273 232.584V239.184H271.773ZM286.829 239.424C285.776 239.424 284.849 239.177 284.049 238.684C283.249 238.19 282.622 237.524 282.169 236.684C281.716 235.83 281.489 234.87 281.489 233.804C281.489 232.737 281.716 231.784 282.169 230.944C282.622 230.104 283.249 229.444 284.049 228.964C284.849 228.47 285.776 228.224 286.829 228.224C287.496 228.224 288.122 228.344 288.709 228.584C289.296 228.824 289.816 229.15 290.269 229.564C290.722 229.964 291.062 230.43 291.289 230.964L289.929 231.664C289.662 231.09 289.256 230.624 288.709 230.264C288.162 229.904 287.536 229.724 286.829 229.724C286.122 229.724 285.482 229.904 284.909 230.264C284.349 230.61 283.902 231.097 283.569 231.724C283.249 232.337 283.089 233.037 283.089 233.824C283.089 234.597 283.249 235.297 283.569 235.924C283.902 236.537 284.349 237.024 284.909 237.384C285.482 237.744 286.122 237.924 286.829 237.924C287.536 237.924 288.156 237.744 288.689 237.384C289.236 237.024 289.649 236.544 289.929 235.944L291.289 236.684C291.062 237.204 290.722 237.67 290.269 238.084C289.816 238.497 289.296 238.824 288.709 239.064C288.122 239.304 287.496 239.424 286.829 239.424ZM297.721 239.424C296.974 239.424 296.294 239.25 295.681 238.904C295.068 238.544 294.581 238.05 294.221 237.424C293.874 236.784 293.701 236.05 293.701 235.224V228.464H295.201V235.044C295.201 235.617 295.314 236.124 295.541 236.564C295.781 236.99 296.108 237.324 296.521 237.564C296.948 237.804 297.434 237.924 297.981 237.924C298.528 237.924 299.014 237.804 299.441 237.564C299.868 237.31 300.201 236.957 300.441 236.504C300.681 236.037 300.801 235.484 300.801 234.844V228.464H302.301V239.184H300.801V237.104L301.141 237.184C300.888 237.877 300.454 238.424 299.841 238.824C299.228 239.224 298.521 239.424 297.721 239.424ZM305.386 239.184V224.044H306.886V239.184H305.386ZM314.056 239.304C313.096 239.304 312.356 239.024 311.836 238.464C311.316 237.904 311.056 237.104 311.056 236.064V229.964H309.076V228.464H309.576C310.03 228.464 310.39 228.317 310.656 228.024C310.923 227.717 311.056 227.337 311.056 226.884V225.984H312.556V228.464H314.916V229.964H312.556V236.064C312.556 236.424 312.61 236.744 312.716 237.024C312.823 237.29 313.003 237.504 313.256 237.664C313.523 237.824 313.876 237.904 314.316 237.904C314.423 237.904 314.55 237.897 314.696 237.884C314.843 237.87 314.97 237.857 315.076 237.844V239.184C314.916 239.224 314.736 239.25 314.536 239.264C314.336 239.29 314.176 239.304 314.056 239.304ZM321.51 239.424C320.763 239.424 320.083 239.25 319.47 238.904C318.857 238.544 318.37 238.05 318.01 237.424C317.663 236.784 317.49 236.05 317.49 235.224V228.464H318.99V235.044C318.99 235.617 319.103 236.124 319.33 236.564C319.57 236.99 319.897 237.324 320.31 237.564C320.737 237.804 321.223 237.924 321.77 237.924C322.317 237.924 322.803 237.804 323.23 237.564C323.657 237.31 323.99 236.957 324.23 236.504C324.47 236.037 324.59 235.484 324.59 234.844V228.464H326.09V239.184H324.59V237.104L324.93 237.184C324.677 237.877 324.243 238.424 323.63 238.824C323.017 239.224 322.31 239.424 321.51 239.424ZM329.175 239.184V228.464H330.675V230.224L330.475 229.964C330.728 229.457 331.108 229.057 331.615 228.764C332.135 228.47 332.762 228.324 333.495 228.324H334.175V229.824H333.235C332.462 229.824 331.842 230.064 331.375 230.544C330.908 231.024 330.675 231.704 330.675 232.584V239.184H329.175ZM340.813 239.424C339.813 239.424 338.906 239.184 338.093 238.704C337.293 238.21 336.659 237.537 336.193 236.684C335.726 235.83 335.493 234.864 335.493 233.784C335.493 232.704 335.719 231.75 336.173 230.924C336.626 230.084 337.239 229.424 338.013 228.944C338.799 228.464 339.679 228.224 340.653 228.224C341.426 228.224 342.113 228.37 342.713 228.664C343.326 228.944 343.846 229.33 344.273 229.824C344.699 230.304 345.026 230.85 345.253 231.464C345.479 232.064 345.593 232.684 345.593 233.324C345.593 233.457 345.586 233.61 345.573 233.784C345.559 233.944 345.539 234.11 345.513 234.284H336.453V232.884H344.653L343.933 233.484C344.053 232.75 343.966 232.097 343.673 231.524C343.393 230.937 342.986 230.477 342.453 230.144C341.919 229.797 341.319 229.624 340.653 229.624C339.986 229.624 339.366 229.797 338.793 230.144C338.233 230.49 337.793 230.977 337.473 231.604C337.153 232.217 337.026 232.95 337.093 233.804C337.026 234.657 337.159 235.404 337.493 236.044C337.839 236.67 338.306 237.157 338.893 237.504C339.493 237.85 340.133 238.024 340.813 238.024C341.599 238.024 342.259 237.837 342.793 237.464C343.326 237.09 343.759 236.624 344.093 236.064L345.373 236.744C345.159 237.224 344.833 237.67 344.393 238.084C343.953 238.484 343.426 238.81 342.813 239.064C342.213 239.304 341.546 239.424 340.813 239.424ZM354.736 239.424C354.056 239.424 353.449 239.297 352.916 239.044C352.383 238.777 351.963 238.417 351.656 237.964C351.349 237.51 351.196 236.99 351.196 236.404C351.196 235.844 351.316 235.337 351.556 234.884C351.796 234.417 352.169 234.024 352.676 233.704C353.183 233.384 353.829 233.157 354.616 233.024L358.816 232.324V233.684L354.976 234.324C354.203 234.457 353.643 234.704 353.296 235.064C352.963 235.424 352.796 235.85 352.796 236.344C352.796 236.824 352.983 237.23 353.356 237.564C353.743 237.897 354.236 238.064 354.836 238.064C355.569 238.064 356.209 237.91 356.756 237.604C357.303 237.284 357.729 236.857 358.036 236.324C358.343 235.79 358.496 235.197 358.496 234.544V231.824C358.496 231.184 358.263 230.664 357.796 230.264C357.329 229.864 356.723 229.664 355.976 229.664C355.323 229.664 354.749 229.83 354.256 230.164C353.763 230.484 353.396 230.904 353.156 231.424L351.796 230.684C351.996 230.23 352.309 229.817 352.736 229.444C353.176 229.07 353.676 228.777 354.236 228.564C354.796 228.337 355.376 228.224 355.976 228.224C356.763 228.224 357.456 228.377 358.056 228.684C358.669 228.99 359.143 229.417 359.476 229.964C359.823 230.497 359.996 231.117 359.996 231.824V239.184H358.496V237.044L358.716 237.264C358.529 237.664 358.236 238.03 357.836 238.364C357.449 238.684 356.989 238.944 356.456 239.144C355.936 239.33 355.363 239.424 354.736 239.424ZM363.081 239.184V228.464H364.581V230.544L364.241 230.464C364.508 229.77 364.941 229.224 365.541 228.824C366.155 228.424 366.861 228.224 367.661 228.224C368.421 228.224 369.101 228.397 369.701 228.744C370.315 229.09 370.795 229.57 371.141 230.184C371.501 230.784 371.681 231.464 371.681 232.224V239.184H370.181V232.804C370.181 232.15 370.061 231.597 369.821 231.144C369.595 230.69 369.268 230.344 368.841 230.104C368.428 229.85 367.948 229.724 367.401 229.724C366.855 229.724 366.368 229.85 365.941 230.104C365.515 230.344 365.181 230.697 364.941 231.164C364.701 231.617 364.581 232.164 364.581 232.804V239.184H363.081ZM379.386 239.424C378.386 239.424 377.486 239.184 376.686 238.704C375.886 238.21 375.253 237.544 374.786 236.704C374.333 235.85 374.106 234.89 374.106 233.824C374.106 232.744 374.333 231.784 374.786 230.944C375.253 230.104 375.879 229.444 376.666 228.964C377.466 228.47 378.373 228.224 379.386 228.224C380.306 228.224 381.126 228.424 381.846 228.824C382.566 229.224 383.133 229.764 383.546 230.444L383.306 230.864V224.044H384.806V239.184H383.306V236.784L383.546 237.004C383.173 237.777 382.613 238.377 381.866 238.804C381.133 239.217 380.306 239.424 379.386 239.424ZM379.466 237.924C380.186 237.924 380.833 237.744 381.406 237.384C381.993 237.024 382.453 236.537 382.786 235.924C383.133 235.297 383.306 234.597 383.306 233.824C383.306 233.05 383.133 232.357 382.786 231.744C382.453 231.117 381.993 230.624 381.406 230.264C380.833 229.904 380.186 229.724 379.466 229.724C378.759 229.724 378.119 229.904 377.546 230.264C376.973 230.624 376.519 231.11 376.186 231.724C375.866 232.337 375.706 233.037 375.706 233.824C375.706 234.597 375.866 235.297 376.186 235.924C376.519 236.537 376.966 237.024 377.526 237.384C378.099 237.744 378.746 237.924 379.466 237.924ZM111.919 264.184V253.464H113.419V264.184H111.919ZM111.919 251.484V249.284H113.419V251.484H111.919ZM116.489 264.184V253.464H117.989V255.544L117.649 255.464C117.916 254.77 118.349 254.224 118.949 253.824C119.563 253.424 120.269 253.224 121.069 253.224C121.829 253.224 122.509 253.397 123.109 253.744C123.723 254.09 124.203 254.57 124.549 255.184C124.909 255.784 125.089 256.464 125.089 257.224V264.184H123.589V257.804C123.589 257.15 123.469 256.597 123.229 256.144C123.003 255.69 122.676 255.344 122.249 255.104C121.836 254.85 121.356 254.724 120.809 254.724C120.263 254.724 119.776 254.85 119.349 255.104C118.923 255.344 118.589 255.697 118.349 256.164C118.109 256.617 117.989 257.164 117.989 257.804V264.184H116.489ZM131.674 264.424C130.648 264.424 129.748 264.164 128.974 263.644C128.201 263.124 127.641 262.417 127.294 261.524L128.554 260.924C128.861 261.577 129.288 262.097 129.834 262.484C130.394 262.87 131.008 263.064 131.674 263.064C132.314 263.064 132.854 262.91 133.294 262.604C133.734 262.284 133.954 261.87 133.954 261.364C133.954 260.99 133.848 260.697 133.634 260.484C133.421 260.257 133.174 260.084 132.894 259.964C132.614 259.844 132.368 259.757 132.154 259.704L130.614 259.264C129.628 258.984 128.914 258.59 128.474 258.084C128.034 257.577 127.814 256.99 127.814 256.324C127.814 255.697 127.974 255.15 128.294 254.684C128.614 254.217 129.048 253.857 129.594 253.604C130.141 253.35 130.748 253.224 131.414 253.224C132.321 253.224 133.141 253.464 133.874 253.944C134.621 254.41 135.148 255.064 135.454 255.904L134.174 256.504C133.908 255.904 133.521 255.437 133.014 255.104C132.521 254.757 131.968 254.584 131.354 254.584C130.754 254.584 130.274 254.737 129.914 255.044C129.554 255.35 129.374 255.737 129.374 256.204C129.374 256.564 129.468 256.85 129.654 257.064C129.841 257.277 130.054 257.437 130.294 257.544C130.548 257.65 130.768 257.73 130.954 257.784L132.734 258.304C133.601 258.557 134.274 258.95 134.754 259.484C135.248 260.017 135.494 260.644 135.494 261.364C135.494 261.95 135.328 262.477 134.994 262.944C134.674 263.41 134.228 263.777 133.654 264.044C133.081 264.297 132.421 264.424 131.674 264.424ZM138.13 268.184V253.464H139.63V255.864L139.39 255.444C139.817 254.764 140.383 254.224 141.09 253.824C141.81 253.424 142.63 253.224 143.55 253.224C144.563 253.224 145.463 253.47 146.25 253.964C147.05 254.444 147.677 255.104 148.13 255.944C148.597 256.784 148.83 257.744 148.83 258.824C148.83 259.89 148.597 260.85 148.13 261.704C147.677 262.544 147.05 263.21 146.25 263.704C145.463 264.184 144.563 264.424 143.55 264.424C142.63 264.424 141.797 264.217 141.05 263.804C140.317 263.377 139.763 262.777 139.39 262.004L139.63 261.784V268.184H138.13ZM143.47 262.924C144.19 262.924 144.83 262.744 145.39 262.384C145.963 262.024 146.41 261.537 146.73 260.924C147.063 260.297 147.23 259.597 147.23 258.824C147.23 258.037 147.063 257.337 146.73 256.724C146.41 256.11 145.963 255.624 145.39 255.264C144.83 254.904 144.19 254.724 143.47 254.724C142.75 254.724 142.097 254.904 141.51 255.264C140.937 255.624 140.477 256.117 140.13 256.744C139.797 257.357 139.63 258.05 139.63 258.824C139.63 259.597 139.797 260.297 140.13 260.924C140.477 261.537 140.937 262.024 141.51 262.384C142.097 262.744 142.75 262.924 143.47 262.924ZM151.47 264.184V253.464H152.97V264.184H151.47ZM151.47 251.484V249.284H152.97V251.484H151.47ZM156.04 264.184V253.464H157.54V255.224L157.34 254.964C157.594 254.457 157.974 254.057 158.48 253.764C159 253.47 159.627 253.324 160.36 253.324H161.04V254.824H160.1C159.327 254.824 158.707 255.064 158.24 255.544C157.774 256.024 157.54 256.704 157.54 257.584V264.184H156.04ZM167.678 264.424C166.678 264.424 165.771 264.184 164.958 263.704C164.158 263.21 163.525 262.537 163.058 261.684C162.591 260.83 162.358 259.864 162.358 258.784C162.358 257.704 162.585 256.75 163.038 255.924C163.491 255.084 164.105 254.424 164.878 253.944C165.665 253.464 166.545 253.224 167.518 253.224C168.291 253.224 168.978 253.37 169.578 253.664C170.191 253.944 170.711 254.33 171.138 254.824C171.565 255.304 171.891 255.85 172.118 256.464C172.345 257.064 172.458 257.684 172.458 258.324C172.458 258.457 172.451 258.61 172.438 258.784C172.425 258.944 172.405 259.11 172.378 259.284H163.318V257.884H171.518L170.798 258.484C170.918 257.75 170.831 257.097 170.538 256.524C170.258 255.937 169.851 255.477 169.318 255.144C168.785 254.797 168.185 254.624 167.518 254.624C166.851 254.624 166.231 254.797 165.658 255.144C165.098 255.49 164.658 255.977 164.338 256.604C164.018 257.217 163.891 257.95 163.958 258.804C163.891 259.657 164.025 260.404 164.358 261.044C164.705 261.67 165.171 262.157 165.758 262.504C166.358 262.85 166.998 263.024 167.678 263.024C168.465 263.024 169.125 262.837 169.658 262.464C170.191 262.09 170.625 261.624 170.958 261.064L172.238 261.744C172.025 262.224 171.698 262.67 171.258 263.084C170.818 263.484 170.291 263.81 169.678 264.064C169.078 264.304 168.411 264.424 167.678 264.424ZM179.943 264.424C178.943 264.424 178.043 264.184 177.243 263.704C176.443 263.21 175.809 262.544 175.343 261.704C174.889 260.85 174.663 259.89 174.663 258.824C174.663 257.744 174.889 256.784 175.343 255.944C175.809 255.104 176.436 254.444 177.223 253.964C178.023 253.47 178.929 253.224 179.943 253.224C180.863 253.224 181.683 253.424 182.403 253.824C183.123 254.224 183.689 254.764 184.103 255.444L183.863 255.864V249.044H185.363V264.184H183.863V261.784L184.103 262.004C183.729 262.777 183.169 263.377 182.423 263.804C181.689 264.217 180.863 264.424 179.943 264.424ZM180.023 262.924C180.743 262.924 181.389 262.744 181.963 262.384C182.549 262.024 183.009 261.537 183.343 260.924C183.689 260.297 183.863 259.597 183.863 258.824C183.863 258.05 183.689 257.357 183.343 256.744C183.009 256.117 182.549 255.624 181.963 255.264C181.389 254.904 180.743 254.724 180.023 254.724C179.316 254.724 178.676 254.904 178.103 255.264C177.529 255.624 177.076 256.11 176.743 256.724C176.423 257.337 176.263 258.037 176.263 258.824C176.263 259.597 176.423 260.297 176.743 260.924C177.076 261.537 177.523 262.024 178.083 262.384C178.656 262.744 179.303 262.924 180.023 262.924ZM197.261 264.424C196.341 264.424 195.508 264.217 194.761 263.804C194.028 263.377 193.474 262.777 193.101 262.004L193.341 261.784V264.184H191.841V249.044H193.341V255.864L193.101 255.444C193.528 254.764 194.094 254.224 194.801 253.824C195.521 253.424 196.341 253.224 197.261 253.224C198.274 253.224 199.174 253.47 199.961 253.964C200.761 254.444 201.388 255.104 201.841 255.944C202.308 256.784 202.541 257.744 202.541 258.824C202.541 259.89 202.308 260.85 201.841 261.704C201.388 262.544 200.761 263.21 199.961 263.704C199.174 264.184 198.274 264.424 197.261 264.424ZM197.181 262.924C197.901 262.924 198.541 262.744 199.101 262.384C199.674 262.024 200.121 261.537 200.441 260.924C200.774 260.297 200.941 259.597 200.941 258.824C200.941 258.037 200.774 257.337 200.441 256.724C200.121 256.11 199.674 255.624 199.101 255.264C198.541 254.904 197.901 254.724 197.181 254.724C196.461 254.724 195.808 254.904 195.221 255.264C194.648 255.624 194.188 256.117 193.841 256.744C193.508 257.357 193.341 258.05 193.341 258.824C193.341 259.597 193.508 260.297 193.841 260.924C194.188 261.537 194.648 262.024 195.221 262.384C195.808 262.744 196.461 262.924 197.181 262.924ZM205.206 268.584C204.992 268.584 204.772 268.564 204.546 268.524C204.332 268.497 204.119 268.444 203.906 268.364V266.964C204.039 266.977 204.206 266.997 204.406 267.024C204.619 267.064 204.832 267.084 205.046 267.084C205.699 267.084 206.199 266.944 206.546 266.664C206.892 266.397 207.232 265.877 207.566 265.104L208.246 263.504L208.206 264.824L203.666 253.464H205.286L209.006 262.844H208.586L212.286 253.464H213.946L209.046 265.544C208.832 266.064 208.559 266.557 208.226 267.024C207.906 267.49 207.499 267.864 207.006 268.144C206.512 268.437 205.912 268.584 205.206 268.584ZM219.107 264.184V253.464H220.607V264.184H219.107ZM219.107 251.484V249.284H220.607V251.484H219.107ZM227.777 264.304C226.817 264.304 226.077 264.024 225.557 263.464C225.037 262.904 224.777 262.104 224.777 261.064V254.964H222.797V253.464H223.297C223.75 253.464 224.11 253.317 224.377 253.024C224.644 252.717 224.777 252.337 224.777 251.884V250.984H226.277V253.464H228.637V254.964H226.277V261.064C226.277 261.424 226.33 261.744 226.437 262.024C226.544 262.29 226.724 262.504 226.977 262.664C227.244 262.824 227.597 262.904 228.037 262.904C228.144 262.904 228.27 262.897 228.417 262.884C228.564 262.87 228.69 262.857 228.797 262.844V264.184C228.637 264.224 228.457 264.25 228.257 264.264C228.057 264.29 227.897 264.304 227.777 264.304ZM235.151 264.424C234.124 264.424 233.224 264.164 232.451 263.644C231.677 263.124 231.117 262.417 230.771 261.524L232.031 260.924C232.337 261.577 232.764 262.097 233.311 262.484C233.871 262.87 234.484 263.064 235.151 263.064C235.791 263.064 236.331 262.91 236.771 262.604C237.211 262.284 237.431 261.87 237.431 261.364C237.431 260.99 237.324 260.697 237.111 260.484C236.897 260.257 236.651 260.084 236.371 259.964C236.091 259.844 235.844 259.757 235.631 259.704L234.091 259.264C233.104 258.984 232.391 258.59 231.951 258.084C231.511 257.577 231.291 256.99 231.291 256.324C231.291 255.697 231.451 255.15 231.771 254.684C232.091 254.217 232.524 253.857 233.071 253.604C233.617 253.35 234.224 253.224 234.891 253.224C235.797 253.224 236.617 253.464 237.351 253.944C238.097 254.41 238.624 255.064 238.931 255.904L237.651 256.504C237.384 255.904 236.997 255.437 236.491 255.104C235.997 254.757 235.444 254.584 234.831 254.584C234.231 254.584 233.751 254.737 233.391 255.044C233.031 255.35 232.851 255.737 232.851 256.204C232.851 256.564 232.944 256.85 233.131 257.064C233.317 257.277 233.531 257.437 233.771 257.544C234.024 257.65 234.244 257.73 234.431 257.784L236.211 258.304C237.077 258.557 237.751 258.95 238.231 259.484C238.724 260.017 238.971 260.644 238.971 261.364C238.971 261.95 238.804 262.477 238.471 262.944C238.151 263.41 237.704 263.777 237.131 264.044C236.557 264.297 235.897 264.424 235.151 264.424ZM249.105 264.304C248.145 264.304 247.405 264.024 246.885 263.464C246.365 262.904 246.105 262.104 246.105 261.064V254.964H244.125V253.464H244.625C245.078 253.464 245.438 253.317 245.705 253.024C245.972 252.717 246.105 252.337 246.105 251.884V250.984H247.605V253.464H249.965V254.964H247.605V261.064C247.605 261.424 247.658 261.744 247.765 262.024C247.872 262.29 248.052 262.504 248.305 262.664C248.572 262.824 248.925 262.904 249.365 262.904C249.472 262.904 249.598 262.897 249.745 262.884C249.892 262.87 250.018 262.857 250.125 262.844V264.184C249.965 264.224 249.785 264.25 249.585 264.264C249.385 264.29 249.225 264.304 249.105 264.304ZM252.759 264.184V253.464H254.259V264.184H252.759ZM252.759 251.484V249.284H254.259V251.484H252.759ZM257.329 264.184V253.464H258.829V255.504L258.589 255.204C258.883 254.577 259.316 254.09 259.889 253.744C260.476 253.397 261.116 253.224 261.809 253.224C262.636 253.224 263.383 253.457 264.049 253.924C264.716 254.39 265.189 254.997 265.469 255.744L265.049 255.764C265.316 254.937 265.776 254.31 266.429 253.884C267.096 253.444 267.829 253.224 268.629 253.224C269.349 253.224 270.009 253.397 270.609 253.744C271.223 254.09 271.709 254.57 272.069 255.184C272.443 255.784 272.629 256.464 272.629 257.224V264.184H271.129V257.804C271.129 257.15 271.009 256.597 270.769 256.144C270.543 255.69 270.229 255.344 269.829 255.104C269.429 254.85 268.969 254.724 268.449 254.724C267.943 254.724 267.483 254.85 267.069 255.104C266.656 255.344 266.329 255.697 266.089 256.164C265.849 256.617 265.729 257.164 265.729 257.804V264.184H264.229V257.804C264.229 257.15 264.109 256.597 263.869 256.144C263.643 255.69 263.329 255.344 262.929 255.104C262.529 254.85 262.069 254.724 261.549 254.724C261.029 254.724 260.563 254.85 260.149 255.104C259.749 255.344 259.429 255.697 259.189 256.164C258.949 256.617 258.829 257.164 258.829 257.804V264.184H257.329ZM280.373 264.424C279.373 264.424 278.467 264.184 277.653 263.704C276.853 263.21 276.22 262.537 275.753 261.684C275.287 260.83 275.053 259.864 275.053 258.784C275.053 257.704 275.28 256.75 275.733 255.924C276.187 255.084 276.8 254.424 277.573 253.944C278.36 253.464 279.24 253.224 280.213 253.224C280.987 253.224 281.673 253.37 282.273 253.664C282.887 253.944 283.407 254.33 283.833 254.824C284.26 255.304 284.587 255.85 284.813 256.464C285.04 257.064 285.153 257.684 285.153 258.324C285.153 258.457 285.147 258.61 285.133 258.784C285.12 258.944 285.1 259.11 285.073 259.284H276.013V257.884H284.213L283.493 258.484C283.613 257.75 283.527 257.097 283.233 256.524C282.953 255.937 282.547 255.477 282.013 255.144C281.48 254.797 280.88 254.624 280.213 254.624C279.547 254.624 278.927 254.797 278.353 255.144C277.793 255.49 277.353 255.977 277.033 256.604C276.713 257.217 276.587 257.95 276.653 258.804C276.587 259.657 276.72 260.404 277.053 261.044C277.4 261.67 277.867 262.157 278.453 262.504C279.053 262.85 279.693 263.024 280.373 263.024C281.16 263.024 281.82 262.837 282.353 262.464C282.887 262.09 283.32 261.624 283.653 261.064L284.933 261.744C284.72 262.224 284.393 262.67 283.953 263.084C283.513 263.484 282.987 263.81 282.373 264.064C281.773 264.304 281.107 264.424 280.373 264.424ZM287.798 264.184V249.044H289.298V264.184H287.798ZM297.248 264.424C296.248 264.424 295.342 264.184 294.528 263.704C293.728 263.21 293.095 262.537 292.628 261.684C292.162 260.83 291.928 259.864 291.928 258.784C291.928 257.704 292.155 256.75 292.608 255.924C293.062 255.084 293.675 254.424 294.448 253.944C295.235 253.464 296.115 253.224 297.088 253.224C297.862 253.224 298.548 253.37 299.148 253.664C299.762 253.944 300.282 254.33 300.708 254.824C301.135 255.304 301.462 255.85 301.688 256.464C301.915 257.064 302.028 257.684 302.028 258.324C302.028 258.457 302.022 258.61 302.008 258.784C301.995 258.944 301.975 259.11 301.948 259.284H292.888V257.884H301.088L300.368 258.484C300.488 257.75 300.402 257.097 300.108 256.524C299.828 255.937 299.422 255.477 298.888 255.144C298.355 254.797 297.755 254.624 297.088 254.624C296.422 254.624 295.802 254.797 295.228 255.144C294.668 255.49 294.228 255.977 293.908 256.604C293.588 257.217 293.462 257.95 293.528 258.804C293.462 259.657 293.595 260.404 293.928 261.044C294.275 261.67 294.742 262.157 295.328 262.504C295.928 262.85 296.568 263.024 297.248 263.024C298.035 263.024 298.695 262.837 299.228 262.464C299.762 262.09 300.195 261.624 300.528 261.064L301.808 261.744C301.595 262.224 301.268 262.67 300.828 263.084C300.388 263.484 299.862 263.81 299.248 264.064C298.648 264.304 297.982 264.424 297.248 264.424ZM308.393 264.424C307.366 264.424 306.466 264.164 305.693 263.644C304.92 263.124 304.36 262.417 304.013 261.524L305.273 260.924C305.58 261.577 306.006 262.097 306.553 262.484C307.113 262.87 307.726 263.064 308.393 263.064C309.033 263.064 309.573 262.91 310.013 262.604C310.453 262.284 310.673 261.87 310.673 261.364C310.673 260.99 310.566 260.697 310.353 260.484C310.14 260.257 309.893 260.084 309.613 259.964C309.333 259.844 309.086 259.757 308.873 259.704L307.333 259.264C306.346 258.984 305.633 258.59 305.193 258.084C304.753 257.577 304.533 256.99 304.533 256.324C304.533 255.697 304.693 255.15 305.013 254.684C305.333 254.217 305.766 253.857 306.313 253.604C306.86 253.35 307.466 253.224 308.133 253.224C309.04 253.224 309.86 253.464 310.593 253.944C311.34 254.41 311.866 255.064 312.173 255.904L310.893 256.504C310.626 255.904 310.24 255.437 309.733 255.104C309.24 254.757 308.686 254.584 308.073 254.584C307.473 254.584 306.993 254.737 306.633 255.044C306.273 255.35 306.093 255.737 306.093 256.204C306.093 256.564 306.186 256.85 306.373 257.064C306.56 257.277 306.773 257.437 307.013 257.544C307.266 257.65 307.486 257.73 307.673 257.784L309.453 258.304C310.32 258.557 310.993 258.95 311.473 259.484C311.966 260.017 312.213 260.644 312.213 261.364C312.213 261.95 312.046 262.477 311.713 262.944C311.393 263.41 310.946 263.777 310.373 264.044C309.8 264.297 309.14 264.424 308.393 264.424ZM318.569 264.424C317.542 264.424 316.642 264.164 315.869 263.644C315.095 263.124 314.535 262.417 314.189 261.524L315.449 260.924C315.755 261.577 316.182 262.097 316.729 262.484C317.289 262.87 317.902 263.064 318.569 263.064C319.209 263.064 319.749 262.91 320.189 262.604C320.629 262.284 320.849 261.87 320.849 261.364C320.849 260.99 320.742 260.697 320.529 260.484C320.315 260.257 320.069 260.084 319.789 259.964C319.509 259.844 319.262 259.757 319.049 259.704L317.509 259.264C316.522 258.984 315.809 258.59 315.369 258.084C314.929 257.577 314.709 256.99 314.709 256.324C314.709 255.697 314.869 255.15 315.189 254.684C315.509 254.217 315.942 253.857 316.489 253.604C317.035 253.35 317.642 253.224 318.309 253.224C319.215 253.224 320.035 253.464 320.769 253.944C321.515 254.41 322.042 255.064 322.349 255.904L321.069 256.504C320.802 255.904 320.415 255.437 319.909 255.104C319.415 254.757 318.862 254.584 318.249 254.584C317.649 254.584 317.169 254.737 316.809 255.044C316.449 255.35 316.269 255.737 316.269 256.204C316.269 256.564 316.362 256.85 316.549 257.064C316.735 257.277 316.949 257.437 317.189 257.544C317.442 257.65 317.662 257.73 317.849 257.784L319.629 258.304C320.495 258.557 321.169 258.95 321.649 259.484C322.142 260.017 322.389 260.644 322.389 261.364C322.389 261.95 322.222 262.477 321.889 262.944C321.569 263.41 321.122 263.777 320.549 264.044C319.975 264.297 319.315 264.424 318.569 264.424ZM333.843 264.424C332.923 264.424 332.09 264.217 331.343 263.804C330.61 263.377 330.056 262.777 329.683 262.004L329.923 261.784V264.184H328.423V249.044H329.923V255.864L329.683 255.444C330.11 254.764 330.676 254.224 331.383 253.824C332.103 253.424 332.923 253.224 333.843 253.224C334.856 253.224 335.756 253.47 336.543 253.964C337.343 254.444 337.97 255.104 338.423 255.944C338.89 256.784 339.123 257.744 339.123 258.824C339.123 259.89 338.89 260.85 338.423 261.704C337.97 262.544 337.343 263.21 336.543 263.704C335.756 264.184 334.856 264.424 333.843 264.424ZM333.763 262.924C334.483 262.924 335.123 262.744 335.683 262.384C336.256 262.024 336.703 261.537 337.023 260.924C337.356 260.297 337.523 259.597 337.523 258.824C337.523 258.037 337.356 257.337 337.023 256.724C336.703 256.11 336.256 255.624 335.683 255.264C335.123 254.904 334.483 254.724 333.763 254.724C333.043 254.724 332.39 254.904 331.803 255.264C331.23 255.624 330.77 256.117 330.423 256.744C330.09 257.357 329.923 258.05 329.923 258.824C329.923 259.597 330.09 260.297 330.423 260.924C330.77 261.537 331.23 262.024 331.803 262.384C332.39 262.744 333.043 262.924 333.763 262.924ZM346.643 264.424C345.643 264.424 344.736 264.184 343.923 263.704C343.123 263.21 342.49 262.537 342.023 261.684C341.556 260.83 341.323 259.864 341.323 258.784C341.323 257.704 341.55 256.75 342.003 255.924C342.456 255.084 343.07 254.424 343.843 253.944C344.63 253.464 345.51 253.224 346.483 253.224C347.256 253.224 347.943 253.37 348.543 253.664C349.156 253.944 349.676 254.33 350.103 254.824C350.53 255.304 350.856 255.85 351.083 256.464C351.31 257.064 351.423 257.684 351.423 258.324C351.423 258.457 351.416 258.61 351.403 258.784C351.39 258.944 351.37 259.11 351.343 259.284H342.283V257.884H350.483L349.763 258.484C349.883 257.75 349.796 257.097 349.503 256.524C349.223 255.937 348.816 255.477 348.283 255.144C347.75 254.797 347.15 254.624 346.483 254.624C345.816 254.624 345.196 254.797 344.623 255.144C344.063 255.49 343.623 255.977 343.303 256.604C342.983 257.217 342.856 257.95 342.923 258.804C342.856 259.657 342.99 260.404 343.323 261.044C343.67 261.67 344.136 262.157 344.723 262.504C345.323 262.85 345.963 263.024 346.643 263.024C347.43 263.024 348.09 262.837 348.623 262.464C349.156 262.09 349.59 261.624 349.923 261.064L351.203 261.744C350.99 262.224 350.663 262.67 350.223 263.084C349.783 263.484 349.256 263.81 348.643 264.064C348.043 264.304 347.376 264.424 346.643 264.424ZM356.972 264.424C356.292 264.424 355.686 264.297 355.152 264.044C354.619 263.777 354.199 263.417 353.892 262.964C353.586 262.51 353.432 261.99 353.432 261.404C353.432 260.844 353.552 260.337 353.792 259.884C354.032 259.417 354.406 259.024 354.912 258.704C355.419 258.384 356.066 258.157 356.852 258.024L361.052 257.324V258.684L357.212 259.324C356.439 259.457 355.879 259.704 355.532 260.064C355.199 260.424 355.032 260.85 355.032 261.344C355.032 261.824 355.219 262.23 355.592 262.564C355.979 262.897 356.472 263.064 357.072 263.064C357.806 263.064 358.446 262.91 358.992 262.604C359.539 262.284 359.966 261.857 360.272 261.324C360.579 260.79 360.732 260.197 360.732 259.544V256.824C360.732 256.184 360.499 255.664 360.032 255.264C359.566 254.864 358.959 254.664 358.212 254.664C357.559 254.664 356.986 254.83 356.492 255.164C355.999 255.484 355.632 255.904 355.392 256.424L354.032 255.684C354.232 255.23 354.546 254.817 354.972 254.444C355.412 254.07 355.912 253.777 356.472 253.564C357.032 253.337 357.612 253.224 358.212 253.224C358.999 253.224 359.692 253.377 360.292 253.684C360.906 253.99 361.379 254.417 361.712 254.964C362.059 255.497 362.232 256.117 362.232 256.824V264.184H360.732V262.044L360.952 262.264C360.766 262.664 360.472 263.03 360.072 263.364C359.686 263.684 359.226 263.944 358.692 264.144C358.172 264.33 357.599 264.424 356.972 264.424ZM369.118 264.424C368.371 264.424 367.691 264.25 367.078 263.904C366.464 263.544 365.978 263.05 365.618 262.424C365.271 261.784 365.098 261.05 365.098 260.224V253.464H366.598V260.044C366.598 260.617 366.711 261.124 366.938 261.564C367.178 261.99 367.504 262.324 367.918 262.564C368.344 262.804 368.831 262.924 369.378 262.924C369.924 262.924 370.411 262.804 370.838 262.564C371.264 262.31 371.598 261.957 371.838 261.504C372.078 261.037 372.198 260.484 372.198 259.844V253.464H373.698V264.184H372.198V262.104L372.538 262.184C372.284 262.877 371.851 263.424 371.238 263.824C370.624 264.224 369.918 264.424 369.118 264.424ZM380.882 264.304C379.922 264.304 379.182 264.024 378.662 263.464C378.142 262.904 377.882 262.104 377.882 261.064V254.964H375.902V253.464H376.402C376.856 253.464 377.216 253.317 377.482 253.024C377.749 252.717 377.882 252.337 377.882 251.884V250.984H379.382V253.464H381.742V254.964H379.382V261.064C379.382 261.424 379.436 261.744 379.542 262.024C379.649 262.29 379.829 262.504 380.082 262.664C380.349 262.824 380.702 262.904 381.142 262.904C381.249 262.904 381.376 262.897 381.522 262.884C381.669 262.87 381.796 262.857 381.902 262.844V264.184C381.742 264.224 381.562 264.25 381.362 264.264C381.162 264.29 381.002 264.304 380.882 264.304ZM384.756 268.584C384.543 268.584 384.323 268.564 384.096 268.524C383.883 268.497 383.67 268.444 383.456 268.364V266.964C383.59 266.977 383.756 266.997 383.956 267.024C384.17 267.064 384.383 267.084 384.596 267.084C385.25 267.084 385.75 266.944 386.096 266.664C386.443 266.397 386.783 265.877 387.116 265.104L387.796 263.504L387.756 264.824L383.216 253.464H384.836L388.556 262.844H388.136L391.836 253.464H393.496L388.596 265.544C388.383 266.064 388.11 266.557 387.776 267.024C387.456 267.49 387.05 267.864 386.556 268.144C386.063 268.437 385.463 268.584 384.756 268.584ZM190.234 289.424C189.554 289.424 188.947 289.297 188.414 289.044C187.881 288.777 187.461 288.417 187.154 287.964C186.847 287.51 186.694 286.99 186.694 286.404C186.694 285.844 186.814 285.337 187.054 284.884C187.294 284.417 187.667 284.024 188.174 283.704C188.681 283.384 189.327 283.157 190.114 283.024L194.314 282.324V283.684L190.474 284.324C189.701 284.457 189.141 284.704 188.794 285.064C188.461 285.424 188.294 285.85 188.294 286.344C188.294 286.824 188.481 287.23 188.854 287.564C189.241 287.897 189.734 288.064 190.334 288.064C191.067 288.064 191.707 287.91 192.254 287.604C192.801 287.284 193.227 286.857 193.534 286.324C193.841 285.79 193.994 285.197 193.994 284.544V281.824C193.994 281.184 193.761 280.664 193.294 280.264C192.827 279.864 192.221 279.664 191.474 279.664C190.821 279.664 190.247 279.83 189.754 280.164C189.261 280.484 188.894 280.904 188.654 281.424L187.294 280.684C187.494 280.23 187.807 279.817 188.234 279.444C188.674 279.07 189.174 278.777 189.734 278.564C190.294 278.337 190.874 278.224 191.474 278.224C192.261 278.224 192.954 278.377 193.554 278.684C194.167 278.99 194.641 279.417 194.974 279.964C195.321 280.497 195.494 281.117 195.494 281.824V289.184H193.994V287.044L194.214 287.264C194.027 287.664 193.734 288.03 193.334 288.364C192.947 288.684 192.487 288.944 191.954 289.144C191.434 289.33 190.861 289.424 190.234 289.424ZM198.579 289.184V278.464H200.079V280.544L199.739 280.464C200.006 279.77 200.439 279.224 201.039 278.824C201.653 278.424 202.359 278.224 203.159 278.224C203.919 278.224 204.599 278.397 205.199 278.744C205.813 279.09 206.293 279.57 206.639 280.184C206.999 280.784 207.179 281.464 207.179 282.224V289.184H205.679V282.804C205.679 282.15 205.559 281.597 205.319 281.144C205.093 280.69 204.766 280.344 204.339 280.104C203.926 279.85 203.446 279.724 202.899 279.724C202.353 279.724 201.866 279.85 201.439 280.104C201.013 280.344 200.679 280.697 200.439 281.164C200.199 281.617 200.079 282.164 200.079 282.804V289.184H198.579ZM214.884 289.424C213.884 289.424 212.984 289.184 212.184 288.704C211.384 288.21 210.751 287.544 210.284 286.704C209.831 285.85 209.604 284.89 209.604 283.824C209.604 282.744 209.831 281.784 210.284 280.944C210.751 280.104 211.377 279.444 212.164 278.964C212.964 278.47 213.871 278.224 214.884 278.224C215.804 278.224 216.624 278.424 217.344 278.824C218.064 279.224 218.631 279.764 219.044 280.444L218.804 280.864V274.044H220.304V289.184H218.804V286.784L219.044 287.004C218.671 287.777 218.111 288.377 217.364 288.804C216.631 289.217 215.804 289.424 214.884 289.424ZM214.964 287.924C215.684 287.924 216.331 287.744 216.904 287.384C217.491 287.024 217.951 286.537 218.284 285.924C218.631 285.297 218.804 284.597 218.804 283.824C218.804 283.05 218.631 282.357 218.284 281.744C217.951 281.117 217.491 280.624 216.904 280.264C216.331 279.904 215.684 279.724 214.964 279.724C214.257 279.724 213.617 279.904 213.044 280.264C212.471 280.624 212.017 281.11 211.684 281.724C211.364 282.337 211.204 283.037 211.204 283.824C211.204 284.597 211.364 285.297 211.684 285.924C212.017 286.537 212.464 287.024 213.024 287.384C213.597 287.744 214.244 287.924 214.964 287.924ZM230.882 289.304C229.922 289.304 229.182 289.024 228.662 288.464C228.142 287.904 227.882 287.104 227.882 286.064V279.964H225.902V278.464H226.402C226.856 278.464 227.216 278.317 227.482 278.024C227.749 277.717 227.882 277.337 227.882 276.884V275.984H229.382V278.464H231.742V279.964H229.382V286.064C229.382 286.424 229.436 286.744 229.542 287.024C229.649 287.29 229.829 287.504 230.082 287.664C230.349 287.824 230.702 287.904 231.142 287.904C231.249 287.904 231.376 287.897 231.522 287.884C231.669 287.87 231.796 287.857 231.902 287.844V289.184C231.742 289.224 231.562 289.25 231.362 289.264C231.162 289.29 231.002 289.304 230.882 289.304ZM234.536 289.184V278.464H236.036V280.224L235.836 279.964C236.09 279.457 236.47 279.057 236.976 278.764C237.496 278.47 238.123 278.324 238.856 278.324H239.536V279.824H238.596C237.823 279.824 237.203 280.064 236.736 280.544C236.27 281.024 236.036 281.704 236.036 282.584V289.184H234.536ZM244.394 289.424C243.714 289.424 243.107 289.297 242.574 289.044C242.041 288.777 241.621 288.417 241.314 287.964C241.007 287.51 240.854 286.99 240.854 286.404C240.854 285.844 240.974 285.337 241.214 284.884C241.454 284.417 241.827 284.024 242.334 283.704C242.841 283.384 243.487 283.157 244.274 283.024L248.474 282.324V283.684L244.634 284.324C243.861 284.457 243.301 284.704 242.954 285.064C242.621 285.424 242.454 285.85 242.454 286.344C242.454 286.824 242.641 287.23 243.014 287.564C243.401 287.897 243.894 288.064 244.494 288.064C245.227 288.064 245.867 287.91 246.414 287.604C246.961 287.284 247.387 286.857 247.694 286.324C248.001 285.79 248.154 285.197 248.154 284.544V281.824C248.154 281.184 247.921 280.664 247.454 280.264C246.987 279.864 246.381 279.664 245.634 279.664C244.981 279.664 244.407 279.83 243.914 280.164C243.421 280.484 243.054 280.904 242.814 281.424L241.454 280.684C241.654 280.23 241.967 279.817 242.394 279.444C242.834 279.07 243.334 278.777 243.894 278.564C244.454 278.337 245.034 278.224 245.634 278.224C246.421 278.224 247.114 278.377 247.714 278.684C248.327 278.99 248.801 279.417 249.134 279.964C249.481 280.497 249.654 281.117 249.654 281.824V289.184H248.154V287.044L248.374 287.264C248.187 287.664 247.894 288.03 247.494 288.364C247.107 288.684 246.647 288.944 246.114 289.144C245.594 289.33 245.021 289.424 244.394 289.424ZM257.579 289.424C256.579 289.424 255.679 289.184 254.879 288.704C254.079 288.21 253.446 287.544 252.979 286.704C252.526 285.85 252.299 284.89 252.299 283.824C252.299 282.744 252.526 281.784 252.979 280.944C253.446 280.104 254.073 279.444 254.859 278.964C255.659 278.47 256.566 278.224 257.579 278.224C258.499 278.224 259.319 278.424 260.039 278.824C260.759 279.224 261.326 279.764 261.739 280.444L261.499 280.864V274.044H262.999V289.184H261.499V286.784L261.739 287.004C261.366 287.777 260.806 288.377 260.059 288.804C259.326 289.217 258.499 289.424 257.579 289.424ZM257.659 287.924C258.379 287.924 259.026 287.744 259.599 287.384C260.186 287.024 260.646 286.537 260.979 285.924C261.326 285.297 261.499 284.597 261.499 283.824C261.499 283.05 261.326 282.357 260.979 281.744C260.646 281.117 260.186 280.624 259.599 280.264C259.026 279.904 258.379 279.724 257.659 279.724C256.953 279.724 256.313 279.904 255.739 280.264C255.166 280.624 254.713 281.11 254.379 281.724C254.059 282.337 253.899 283.037 253.899 283.824C253.899 284.597 254.059 285.297 254.379 285.924C254.713 286.537 255.159 287.024 255.719 287.384C256.293 287.744 256.939 287.924 257.659 287.924ZM266.079 289.184V278.464H267.579V289.184H266.079ZM266.079 276.484V274.284H267.579V276.484H266.079ZM274.75 289.304C273.79 289.304 273.05 289.024 272.53 288.464C272.01 287.904 271.75 287.104 271.75 286.064V279.964H269.77V278.464H270.27C270.723 278.464 271.083 278.317 271.35 278.024C271.616 277.717 271.75 277.337 271.75 276.884V275.984H273.25V278.464H275.61V279.964H273.25V286.064C273.25 286.424 273.303 286.744 273.41 287.024C273.516 287.29 273.696 287.504 273.95 287.664C274.216 287.824 274.57 287.904 275.01 287.904C275.116 287.904 275.243 287.897 275.39 287.884C275.536 287.87 275.663 287.857 275.77 287.844V289.184C275.61 289.224 275.43 289.25 275.23 289.264C275.03 289.29 274.87 289.304 274.75 289.304ZM278.403 289.184V278.464H279.903V289.184H278.403ZM278.403 276.484V274.284H279.903V276.484H278.403ZM287.994 289.424C286.98 289.424 286.06 289.184 285.234 288.704C284.407 288.21 283.747 287.544 283.254 286.704C282.774 285.85 282.534 284.884 282.534 283.804C282.534 282.737 282.774 281.784 283.254 280.944C283.734 280.104 284.38 279.444 285.194 278.964C286.02 278.47 286.954 278.224 287.994 278.224C289.034 278.224 289.96 278.464 290.774 278.944C291.6 279.424 292.247 280.084 292.714 280.924C293.194 281.764 293.434 282.724 293.434 283.804C293.434 284.897 293.187 285.87 292.694 286.724C292.2 287.564 291.54 288.224 290.714 288.704C289.9 289.184 288.994 289.424 287.994 289.424ZM287.994 287.924C288.714 287.924 289.36 287.744 289.934 287.384C290.52 287.024 290.98 286.53 291.314 285.904C291.66 285.277 291.834 284.577 291.834 283.804C291.834 283.03 291.66 282.337 291.314 281.724C290.98 281.11 290.52 280.624 289.934 280.264C289.36 279.904 288.714 279.724 287.994 279.724C287.274 279.724 286.62 279.904 286.034 280.264C285.46 280.624 285 281.11 284.654 281.724C284.307 282.337 284.134 283.03 284.134 283.804C284.134 284.577 284.307 285.277 284.654 285.904C285 286.53 285.46 287.024 286.034 287.384C286.62 287.744 287.274 287.924 287.994 287.924ZM296.079 289.184V278.464H297.579V280.544L297.239 280.464C297.506 279.77 297.939 279.224 298.539 278.824C299.153 278.424 299.859 278.224 300.659 278.224C301.419 278.224 302.099 278.397 302.699 278.744C303.313 279.09 303.793 279.57 304.139 280.184C304.499 280.784 304.679 281.464 304.679 282.224V289.184H303.179V282.804C303.179 282.15 303.059 281.597 302.819 281.144C302.593 280.69 302.266 280.344 301.839 280.104C301.426 279.85 300.946 279.724 300.399 279.724C299.853 279.724 299.366 279.85 298.939 280.104C298.513 280.344 298.179 280.697 297.939 281.164C297.699 281.617 297.579 282.164 297.579 282.804V289.184H296.079ZM311.264 289.424C310.237 289.424 309.337 289.164 308.564 288.644C307.791 288.124 307.231 287.417 306.884 286.524L308.144 285.924C308.451 286.577 308.877 287.097 309.424 287.484C309.984 287.87 310.597 288.064 311.264 288.064C311.904 288.064 312.444 287.91 312.884 287.604C313.324 287.284 313.544 286.87 313.544 286.364C313.544 285.99 313.437 285.697 313.224 285.484C313.011 285.257 312.764 285.084 312.484 284.964C312.204 284.844 311.957 284.757 311.744 284.704L310.204 284.264C309.217 283.984 308.504 283.59 308.064 283.084C307.624 282.577 307.404 281.99 307.404 281.324C307.404 280.697 307.564 280.15 307.884 279.684C308.204 279.217 308.637 278.857 309.184 278.604C309.731 278.35 310.337 278.224 311.004 278.224C311.911 278.224 312.731 278.464 313.464 278.944C314.211 279.41 314.737 280.064 315.044 280.904L313.764 281.504C313.497 280.904 313.111 280.437 312.604 280.104C312.111 279.757 311.557 279.584 310.944 279.584C310.344 279.584 309.864 279.737 309.504 280.044C309.144 280.35 308.964 280.737 308.964 281.204C308.964 281.564 309.057 281.85 309.244 282.064C309.431 282.277 309.644 282.437 309.884 282.544C310.137 282.65 310.357 282.73 310.544 282.784L312.324 283.304C313.191 283.557 313.864 283.95 314.344 284.484C314.837 285.017 315.084 285.644 315.084 286.364C315.084 286.95 314.917 287.477 314.584 287.944C314.264 288.41 313.817 288.777 313.244 289.044C312.671 289.297 312.011 289.424 311.264 289.424ZM318.24 289.184V286.984H319.84V289.184H318.24Z" fill="#606976"/>
<path d="M127.89 196.874V178.994H131.154V196.874H127.89ZM134.33 196.874V183.818H137.282V186.386L137.042 185.93C137.346 185.146 137.842 184.554 138.53 184.154C139.234 183.738 140.05 183.53 140.978 183.53C141.938 183.53 142.786 183.738 143.522 184.154C144.274 184.57 144.858 185.154 145.274 185.906C145.69 186.642 145.898 187.498 145.898 188.474V196.874H142.754V189.218C142.754 188.642 142.642 188.146 142.418 187.73C142.194 187.314 141.882 186.994 141.482 186.77C141.098 186.53 140.642 186.41 140.114 186.41C139.602 186.41 139.146 186.53 138.746 186.77C138.346 186.994 138.034 187.314 137.81 187.73C137.586 188.146 137.474 188.642 137.474 189.218V196.874H134.33ZM153.524 197.162C152.132 197.162 150.916 196.834 149.876 196.178C148.852 195.506 148.148 194.602 147.764 193.466L150.116 192.338C150.452 193.074 150.916 193.65 151.508 194.066C152.116 194.482 152.788 194.69 153.524 194.69C154.1 194.69 154.556 194.562 154.892 194.306C155.228 194.05 155.396 193.714 155.396 193.298C155.396 193.042 155.324 192.834 155.18 192.674C155.052 192.498 154.868 192.354 154.628 192.242C154.404 192.114 154.156 192.01 153.884 191.93L151.748 191.33C150.644 191.01 149.804 190.522 149.228 189.866C148.668 189.21 148.388 188.434 148.388 187.538C148.388 186.738 148.588 186.042 148.988 185.45C149.404 184.842 149.972 184.37 150.692 184.034C151.428 183.698 152.268 183.53 153.212 183.53C154.444 183.53 155.532 183.826 156.476 184.418C157.42 185.01 158.092 185.842 158.492 186.914L156.092 188.042C155.868 187.45 155.492 186.978 154.964 186.626C154.436 186.274 153.844 186.098 153.188 186.098C152.66 186.098 152.244 186.218 151.94 186.458C151.636 186.698 151.484 187.01 151.484 187.394C151.484 187.634 151.548 187.842 151.676 188.018C151.804 188.194 151.98 188.338 152.204 188.45C152.444 188.562 152.716 188.666 153.02 188.762L155.108 189.386C156.18 189.706 157.004 190.186 157.58 190.826C158.172 191.466 158.468 192.25 158.468 193.178C158.468 193.962 158.26 194.658 157.844 195.266C157.428 195.858 156.852 196.322 156.116 196.658C155.38 196.994 154.516 197.162 153.524 197.162ZM160.884 201.674V183.818H163.836V186.41L163.548 185.762C163.996 185.058 164.604 184.514 165.372 184.13C166.14 183.73 167.028 183.53 168.036 183.53C169.268 183.53 170.38 183.834 171.372 184.442C172.364 185.05 173.148 185.866 173.724 186.89C174.316 187.914 174.612 189.066 174.612 190.346C174.612 191.61 174.324 192.762 173.748 193.802C173.172 194.842 172.388 195.666 171.396 196.274C170.404 196.866 169.276 197.162 168.012 197.162C167.068 197.162 166.196 196.978 165.396 196.61C164.612 196.226 163.988 195.682 163.524 194.978L164.028 194.354V201.674H160.884ZM167.652 194.282C168.372 194.282 169.012 194.114 169.572 193.778C170.132 193.442 170.564 192.978 170.868 192.386C171.188 191.794 171.348 191.114 171.348 190.346C171.348 189.578 171.188 188.906 170.868 188.33C170.564 187.738 170.132 187.274 169.572 186.938C169.012 186.586 168.372 186.41 167.652 186.41C166.964 186.41 166.34 186.578 165.78 186.914C165.236 187.25 164.804 187.722 164.484 188.33C164.18 188.922 164.028 189.594 164.028 190.346C164.028 191.114 164.18 191.794 164.484 192.386C164.804 192.978 165.236 193.442 165.78 193.778C166.34 194.114 166.964 194.282 167.652 194.282ZM177.009 196.874V183.818H180.153V196.874H177.009ZM177.009 182.354V178.994H180.153V182.354H177.009ZM183.056 196.874V183.818H186.008V186.722L185.768 186.29C186.072 185.314 186.544 184.634 187.184 184.25C187.84 183.866 188.624 183.674 189.536 183.674H190.304V186.458H189.176C188.28 186.458 187.56 186.738 187.016 187.298C186.472 187.842 186.2 188.61 186.2 189.602V196.874H183.056ZM198.225 197.162C196.881 197.162 195.705 196.858 194.697 196.25C193.689 195.642 192.905 194.818 192.345 193.778C191.785 192.738 191.505 191.586 191.505 190.322C191.505 189.01 191.785 187.85 192.345 186.842C192.921 185.818 193.697 185.01 194.673 184.418C195.665 183.826 196.769 183.53 197.985 183.53C199.009 183.53 199.905 183.698 200.673 184.034C201.457 184.37 202.121 184.834 202.665 185.426C203.209 186.018 203.625 186.698 203.913 187.466C204.201 188.218 204.345 189.034 204.345 189.914C204.345 190.138 204.329 190.37 204.297 190.61C204.281 190.85 204.241 191.058 204.177 191.234H194.097V188.834H202.401L200.913 189.962C201.057 189.226 201.017 188.57 200.793 187.994C200.585 187.418 200.233 186.962 199.737 186.626C199.257 186.29 198.673 186.122 197.985 186.122C197.329 186.122 196.745 186.29 196.233 186.626C195.721 186.946 195.329 187.426 195.057 188.066C194.801 188.69 194.705 189.45 194.769 190.346C194.705 191.146 194.809 191.858 195.081 192.482C195.369 193.09 195.785 193.562 196.329 193.898C196.889 194.234 197.529 194.402 198.249 194.402C198.969 194.402 199.577 194.25 200.073 193.946C200.585 193.642 200.985 193.234 201.273 192.722L203.817 193.97C203.561 194.594 203.161 195.146 202.617 195.626C202.073 196.106 201.425 196.482 200.673 196.754C199.937 197.026 199.121 197.162 198.225 197.162ZM212.8 197.162C211.536 197.162 210.408 196.866 209.416 196.274C208.424 195.666 207.64 194.842 207.064 193.802C206.488 192.762 206.2 191.61 206.2 190.346C206.2 189.066 206.488 187.914 207.064 186.89C207.64 185.866 208.424 185.05 209.416 184.442C210.424 183.834 211.544 183.53 212.776 183.53C213.768 183.53 214.648 183.73 215.416 184.13C216.2 184.514 216.816 185.058 217.264 185.762L216.784 186.41V178.706H219.928V196.874H216.952V194.354L217.288 194.978C216.84 195.682 216.216 196.226 215.416 196.61C214.616 196.978 213.744 197.162 212.8 197.162ZM213.136 194.282C213.856 194.282 214.488 194.114 215.032 193.778C215.576 193.442 216 192.978 216.304 192.386C216.624 191.794 216.784 191.114 216.784 190.346C216.784 189.594 216.624 188.922 216.304 188.33C216 187.722 215.576 187.25 215.032 186.914C214.488 186.578 213.856 186.41 213.136 186.41C212.432 186.41 211.8 186.586 211.24 186.938C210.68 187.274 210.24 187.738 209.92 188.33C209.616 188.906 209.464 189.578 209.464 190.346C209.464 191.114 209.616 191.794 209.92 192.386C210.24 192.978 210.68 193.442 211.24 193.778C211.8 194.114 212.432 194.282 213.136 194.282ZM234.247 197.162C233.303 197.162 232.431 196.978 231.631 196.61C230.847 196.226 230.223 195.682 229.759 194.978L230.071 194.354V196.874H227.119V178.706H230.263V186.41L229.783 185.762C230.231 185.058 230.839 184.514 231.607 184.13C232.375 183.73 233.263 183.53 234.271 183.53C235.503 183.53 236.615 183.834 237.607 184.442C238.599 185.05 239.383 185.866 239.959 186.89C240.551 187.914 240.847 189.066 240.847 190.346C240.847 191.61 240.559 192.762 239.983 193.802C239.407 194.842 238.623 195.666 237.631 196.274C236.639 196.866 235.511 197.162 234.247 197.162ZM233.887 194.282C234.607 194.282 235.247 194.114 235.807 193.778C236.367 193.442 236.799 192.978 237.103 192.386C237.423 191.794 237.583 191.114 237.583 190.346C237.583 189.578 237.423 188.906 237.103 188.33C236.799 187.738 236.367 187.274 235.807 186.938C235.247 186.586 234.607 186.41 233.887 186.41C233.199 186.41 232.575 186.578 232.015 186.914C231.471 187.25 231.039 187.722 230.719 188.33C230.415 188.922 230.263 189.594 230.263 190.346C230.263 191.114 230.415 191.794 230.719 192.386C231.039 192.978 231.471 193.442 232.015 193.778C232.575 194.114 233.199 194.282 233.887 194.282ZM244.593 202.154C244.241 202.154 243.897 202.122 243.561 202.058C243.225 202.01 242.921 201.914 242.649 201.77V199.154C242.857 199.202 243.105 199.25 243.393 199.298C243.697 199.346 243.977 199.37 244.233 199.37C244.953 199.37 245.473 199.202 245.793 198.866C246.129 198.546 246.425 198.114 246.681 197.57L247.545 195.554L247.497 198.194L241.809 183.818H245.193L249.177 194.426H247.977L251.937 183.818H255.345L249.657 198.194C249.321 199.026 248.913 199.738 248.433 200.33C247.953 200.922 247.393 201.37 246.753 201.674C246.129 201.994 245.409 202.154 244.593 202.154ZM270.001 197.162C268.721 197.162 267.537 196.93 266.449 196.466C265.377 196.002 264.433 195.354 263.617 194.522C262.817 193.69 262.193 192.714 261.745 191.594C261.297 190.474 261.073 189.25 261.073 187.922C261.073 186.594 261.289 185.37 261.721 184.25C262.169 183.114 262.793 182.138 263.593 181.322C264.409 180.49 265.361 179.85 266.449 179.402C267.537 178.938 268.721 178.706 270.001 178.706C271.281 178.706 272.425 178.922 273.433 179.354C274.457 179.786 275.321 180.362 276.025 181.082C276.729 181.786 277.233 182.562 277.537 183.41L274.609 184.778C274.273 183.882 273.705 183.146 272.905 182.57C272.105 181.978 271.137 181.682 270.001 181.682C268.881 181.682 267.889 181.946 267.025 182.474C266.177 183.002 265.513 183.73 265.033 184.658C264.569 185.586 264.337 186.674 264.337 187.922C264.337 189.17 264.569 190.266 265.033 191.21C265.513 192.138 266.177 192.866 267.025 193.394C267.889 193.922 268.881 194.186 270.001 194.186C271.137 194.186 272.105 193.898 272.905 193.322C273.705 192.73 274.273 191.986 274.609 191.09L277.537 192.458C277.233 193.306 276.729 194.09 276.025 194.81C275.321 195.514 274.457 196.082 273.433 196.514C272.425 196.946 271.281 197.162 270.001 197.162ZM283.649 197.162C282.737 197.162 281.945 197.01 281.273 196.706C280.601 196.402 280.081 195.97 279.713 195.41C279.345 194.834 279.161 194.17 279.161 193.418C279.161 192.698 279.321 192.058 279.641 191.498C279.961 190.922 280.457 190.442 281.129 190.058C281.801 189.674 282.649 189.402 283.673 189.242L287.945 188.546V190.946L284.273 191.57C283.649 191.682 283.185 191.882 282.881 192.17C282.577 192.458 282.425 192.834 282.425 193.298C282.425 193.746 282.593 194.106 282.929 194.378C283.281 194.634 283.713 194.762 284.225 194.762C284.881 194.762 285.457 194.626 285.953 194.354C286.465 194.066 286.857 193.674 287.129 193.178C287.417 192.682 287.561 192.138 287.561 191.546V188.186C287.561 187.626 287.337 187.162 286.889 186.794C286.457 186.41 285.881 186.218 285.161 186.218C284.489 186.218 283.889 186.402 283.361 186.77C282.849 187.122 282.473 187.594 282.233 188.186L279.665 186.938C279.921 186.25 280.321 185.658 280.865 185.162C281.425 184.65 282.081 184.25 282.833 183.962C283.585 183.674 284.401 183.53 285.281 183.53C286.353 183.53 287.297 183.73 288.113 184.13C288.929 184.514 289.561 185.058 290.009 185.762C290.473 186.45 290.705 187.258 290.705 188.186V196.874H287.729V194.642L288.401 194.594C288.065 195.154 287.665 195.626 287.201 196.01C286.737 196.378 286.209 196.666 285.617 196.874C285.025 197.066 284.369 197.162 283.649 197.162ZM293.611 196.874V183.818H296.563V186.842L296.227 186.338C296.467 185.394 296.947 184.69 297.667 184.226C298.387 183.762 299.235 183.53 300.211 183.53C301.283 183.53 302.227 183.81 303.043 184.37C303.859 184.93 304.387 185.666 304.627 186.578L303.739 186.65C304.139 185.61 304.739 184.834 305.539 184.322C306.339 183.794 307.259 183.53 308.299 183.53C309.227 183.53 310.051 183.738 310.771 184.154C311.507 184.57 312.083 185.154 312.499 185.906C312.915 186.642 313.123 187.498 313.123 188.474V196.874H309.979V189.218C309.979 188.642 309.875 188.146 309.667 187.73C309.459 187.314 309.171 186.994 308.803 186.77C308.435 186.53 307.987 186.41 307.459 186.41C306.963 186.41 306.523 186.53 306.139 186.77C305.755 186.994 305.459 187.314 305.251 187.73C305.043 188.146 304.939 188.642 304.939 189.218V196.874H301.795V189.218C301.795 188.642 301.691 188.146 301.483 187.73C301.275 187.314 300.979 186.994 300.595 186.77C300.227 186.53 299.787 186.41 299.275 186.41C298.779 186.41 298.339 186.53 297.955 186.77C297.571 186.994 297.275 187.314 297.067 187.73C296.859 188.146 296.755 188.642 296.755 189.218V196.874H293.611ZM322.911 197.162C321.967 197.162 321.095 196.978 320.295 196.61C319.511 196.226 318.887 195.682 318.423 194.978L318.735 194.354V196.874H315.783V178.706H318.927V186.41L318.447 185.762C318.895 185.058 319.503 184.514 320.271 184.13C321.039 183.73 321.927 183.53 322.935 183.53C324.167 183.53 325.279 183.834 326.271 184.442C327.263 185.05 328.047 185.866 328.623 186.89C329.215 187.914 329.511 189.066 329.511 190.346C329.511 191.61 329.223 192.762 328.647 193.802C328.071 194.842 327.287 195.666 326.295 196.274C325.303 196.866 324.175 197.162 322.911 197.162ZM322.551 194.282C323.271 194.282 323.911 194.114 324.471 193.778C325.031 193.442 325.463 192.978 325.767 192.386C326.087 191.794 326.247 191.114 326.247 190.346C326.247 189.578 326.087 188.906 325.767 188.33C325.463 187.738 325.031 187.274 324.471 186.938C323.911 186.586 323.271 186.41 322.551 186.41C321.863 186.41 321.239 186.578 320.679 186.914C320.135 187.25 319.703 187.722 319.383 188.33C319.079 188.922 318.927 189.594 318.927 190.346C318.927 191.114 319.079 191.794 319.383 192.386C319.703 192.978 320.135 193.442 320.679 193.778C321.239 194.114 321.863 194.282 322.551 194.282ZM338.292 197.162C337.012 197.162 335.844 196.866 334.788 196.274C333.748 195.682 332.916 194.874 332.292 193.85C331.684 192.826 331.38 191.658 331.38 190.346C331.38 189.034 331.684 187.866 332.292 186.842C332.916 185.818 333.748 185.01 334.788 184.418C335.828 183.826 336.996 183.53 338.292 183.53C339.572 183.53 340.732 183.826 341.772 184.418C342.812 185.01 343.636 185.818 344.244 186.842C344.868 187.85 345.18 189.018 345.18 190.346C345.18 191.658 344.868 192.826 344.244 193.85C343.62 194.874 342.788 195.682 341.748 196.274C340.708 196.866 339.556 197.162 338.292 197.162ZM338.292 194.282C338.996 194.282 339.612 194.114 340.14 193.778C340.684 193.442 341.108 192.978 341.412 192.386C341.732 191.778 341.892 191.098 341.892 190.346C341.892 189.578 341.732 188.906 341.412 188.33C341.108 187.738 340.684 187.274 340.14 186.938C339.612 186.586 338.996 186.41 338.292 186.41C337.572 186.41 336.94 186.586 336.396 186.938C335.852 187.274 335.42 187.738 335.1 188.33C334.796 188.906 334.644 189.578 334.644 190.346C334.644 191.098 334.796 191.778 335.1 192.386C335.42 192.978 335.852 193.442 336.396 193.778C336.94 194.114 337.572 194.282 338.292 194.282ZM353.636 197.162C352.372 197.162 351.244 196.866 350.252 196.274C349.26 195.666 348.476 194.842 347.9 193.802C347.324 192.762 347.036 191.61 347.036 190.346C347.036 189.066 347.324 187.914 347.9 186.89C348.476 185.866 349.26 185.05 350.252 184.442C351.26 183.834 352.38 183.53 353.612 183.53C354.604 183.53 355.484 183.73 356.252 184.13C357.036 184.514 357.652 185.058 358.1 185.762L357.62 186.41V178.706H360.764V196.874H357.788V194.354L358.124 194.978C357.676 195.682 357.052 196.226 356.252 196.61C355.452 196.978 354.58 197.162 353.636 197.162ZM353.972 194.282C354.692 194.282 355.324 194.114 355.868 193.778C356.412 193.442 356.836 192.978 357.14 192.386C357.46 191.794 357.62 191.114 357.62 190.346C357.62 189.594 357.46 188.922 357.14 188.33C356.836 187.722 356.412 187.25 355.868 186.914C355.324 186.578 354.692 186.41 353.972 186.41C353.268 186.41 352.636 186.586 352.076 186.938C351.516 187.274 351.076 187.738 350.756 188.33C350.452 188.906 350.3 189.578 350.3 190.346C350.3 191.114 350.452 191.794 350.756 192.386C351.076 192.978 351.516 193.442 352.076 193.778C352.636 194.114 353.268 194.282 353.972 194.282ZM363.689 196.874V183.818H366.833V196.874H363.689ZM363.689 182.354V178.994H366.833V182.354H363.689ZM373.696 197.162C372.784 197.162 371.992 197.01 371.32 196.706C370.648 196.402 370.128 195.97 369.76 195.41C369.392 194.834 369.208 194.17 369.208 193.418C369.208 192.698 369.368 192.058 369.688 191.498C370.008 190.922 370.504 190.442 371.176 190.058C371.848 189.674 372.696 189.402 373.72 189.242L377.992 188.546V190.946L374.32 191.57C373.696 191.682 373.232 191.882 372.928 192.17C372.624 192.458 372.472 192.834 372.472 193.298C372.472 193.746 372.64 194.106 372.976 194.378C373.328 194.634 373.76 194.762 374.272 194.762C374.928 194.762 375.504 194.626 376 194.354C376.512 194.066 376.904 193.674 377.176 193.178C377.464 192.682 377.608 192.138 377.608 191.546V188.186C377.608 187.626 377.384 187.162 376.936 186.794C376.504 186.41 375.928 186.218 375.208 186.218C374.536 186.218 373.936 186.402 373.408 186.77C372.896 187.122 372.52 187.594 372.28 188.186L369.712 186.938C369.968 186.25 370.368 185.658 370.912 185.162C371.472 184.65 372.128 184.25 372.88 183.962C373.632 183.674 374.448 183.53 375.328 183.53C376.4 183.53 377.344 183.73 378.16 184.13C378.976 184.514 379.608 185.058 380.056 185.762C380.52 186.45 380.752 187.258 380.752 188.186V196.874H377.776V194.642L378.448 194.594C378.112 195.154 377.712 195.626 377.248 196.01C376.784 196.378 376.256 196.666 375.664 196.874C375.072 197.066 374.416 197.162 373.696 197.162Z" fill="#0F172A"/>
<path d="M265.687 141.645V140.319H265.029V138.993H264.372V137.859H263.718V137.005H263.326V136.344H262.789C262.621 136.239 262.443 136.037 262.382 135.81H262.361V133.642C262.428 133.366 262.653 133.122 262.823 133.073V131.033C262.581 131.033 262.455 131.343 262.444 131.377V130.563C262.346 130.502 262.237 130.509 262.121 130.557V130.765H261.755V129.812C261.63 129.812 261.61 130.261 261.322 130.261C261.172 130.261 261.187 130.075 261.273 129.924C261.347 129.789 261.439 129.604 261.314 129.258C261.229 129.523 260.997 129.606 261.041 129.441C261.113 129.156 261.325 129.109 261.167 128.666C261.111 129.035 260.883 129.019 260.94 128.804C261.003 128.563 261.13 128.463 260.972 128.123C260.883 128.51 260.763 128.488 260.763 128.247C260.763 127.892 260.776 127.509 260.335 127.368C260.335 127.368 260.31 127.042 260.151 127.042C259.991 127.042 259.966 127.368 259.966 127.368C259.525 127.509 259.537 127.892 259.537 128.247C259.537 128.487 259.418 128.509 259.33 128.123C259.17 128.463 259.299 128.563 259.362 128.804C259.416 129.019 259.19 129.035 259.134 128.666C258.976 129.109 259.187 129.156 259.26 129.441C259.304 129.606 259.073 129.523 258.988 129.258C258.861 129.604 258.954 129.789 259.029 129.924C259.113 130.075 259.128 130.261 258.978 130.261C258.691 130.261 258.671 129.812 258.546 129.812V131.487H255.192L255.198 129.973C254.976 130.064 254.939 130.277 254.939 130.277V130.551H254.72C254.72 130.551 254.569 130.547 254.569 130.285C254.569 130.024 254.66 129.847 254.848 129.856V129.326C254.848 129.326 254.353 129.393 254.353 129.988V129.483C254.2 129.483 254.18 129.683 254.18 130.202H254.036V129.616C254.044 129.323 254.316 129.301 254.324 129.088C254.324 129.088 254.361 128.767 254.279 128.621C254.168 129.051 253.967 128.972 253.967 128.795C253.967 128.641 254.08 128.498 254.313 128.124C254.388 128.004 254.341 127.629 254.238 127.496C254.198 127.821 254.151 127.976 254.016 127.976C253.935 127.976 253.868 127.921 253.868 127.757C253.868 127.549 254.003 127.445 254.068 127.256C254.146 127.036 254.091 126.811 253.963 126.686C253.909 127.008 253.924 127.136 253.789 127.136C253.511 127.044 253.789 126.628 253.847 126.523C253.899 126.323 253.756 126.156 253.756 126.156C253.668 126.441 253.641 126.465 253.545 126.439C253.426 126.405 253.441 126.22 253.587 126.071C253.679 125.977 253.67 125.836 253.571 125.724C253.467 125.936 253.301 125.907 253.325 125.779L253.412 125.329H253.179L253.209 124.432H252.934C252.906 124.245 252.814 123.985 252.533 123.981C252.252 123.985 252.162 124.245 252.134 124.432H251.858L251.888 125.329H251.656L251.736 125.795C251.722 125.915 251.597 125.927 251.497 125.725C251.397 125.838 251.389 125.978 251.481 126.071C251.626 126.221 251.642 126.406 251.522 126.439C251.428 126.466 251.399 126.442 251.312 126.157C251.312 126.157 251.152 126.401 251.22 126.523C251.28 126.628 251.556 127.045 251.28 127.136C251.143 127.136 251.159 127.008 251.104 126.687C250.975 126.812 250.922 127.037 250.999 127.257C251.065 127.446 251.2 127.55 251.2 127.758C251.2 127.922 251.133 127.977 251.051 127.977C250.917 127.977 250.871 127.821 250.83 127.496C250.725 127.63 250.679 128.005 250.753 128.124C250.988 128.499 251.1 128.642 251.1 128.795C251.1 128.972 250.901 129.051 250.791 128.622C250.71 128.768 250.743 129.089 250.743 129.089C250.752 129.302 251.024 129.324 251.034 129.617V130.204H250.892C250.892 129.694 250.892 129.485 250.703 129.485V129.95C250.679 129.394 250.212 129.329 250.212 129.329V129.859C250.398 129.85 250.488 130.026 250.488 130.288C250.488 130.549 250.338 130.554 250.338 130.554H250.086V130.277C250.086 130.277 250.032 130.064 249.812 129.973V131.487H246.546V129.812C246.42 129.812 246.402 130.261 246.113 130.261C245.964 130.261 245.98 130.075 246.064 129.924C246.139 129.789 246.231 129.604 246.106 129.258C246.02 129.523 245.789 129.606 245.832 129.441C245.906 129.156 246.116 129.109 245.957 128.666C245.903 129.035 245.675 129.019 245.731 128.804C245.792 128.563 245.921 128.463 245.763 128.123C245.674 128.51 245.554 128.488 245.554 128.247C245.554 127.892 245.567 127.509 245.125 127.368C245.125 127.368 245.102 127.042 244.942 127.042C244.783 127.042 244.757 127.368 244.757 127.368C244.317 127.509 244.33 127.892 244.33 128.247C244.33 128.487 244.21 128.509 244.121 128.123C243.963 128.463 244.091 128.563 244.153 128.804C244.209 129.019 243.981 129.035 243.927 128.666C243.768 129.109 243.979 129.156 244.053 129.441C244.096 129.606 243.864 129.523 243.779 129.258C243.654 129.604 243.746 129.789 243.82 129.924C243.904 130.075 243.92 130.261 243.771 130.261C243.483 130.261 243.464 129.812 243.338 129.812V130.765H243.012V130.557C242.882 130.509 242.758 130.501 242.649 130.563V131.378C242.639 131.346 242.513 131.034 242.271 131.034V133.074C242.44 133.123 242.664 133.367 242.732 133.643V135.81C242.664 136.031 242.52 136.221 242.325 136.345H241.763V137.006H241.374V137.86H240.72V138.994H240.063V140.319H239.402V141.645H265.687Z" fill="black"/>
<path d="M252.545 111.608C240.639 111.608 230.987 121.26 230.987 133.166C230.987 145.071 240.639 154.723 252.545 154.723C264.45 154.723 274.102 145.071 274.102 133.166C274.102 121.26 264.45 111.608 252.545 111.608ZM235.911 121.86H269.179C271.378 125.085 272.665 128.977 272.665 133.166C272.665 137.355 271.378 141.247 269.179 144.471H235.911C233.712 141.247 232.424 137.355 232.424 133.166C232.424 128.977 233.712 125.085 235.911 121.86Z" fill="black"/>
</svg>
